<svg id="Layer_1" data-name="Layer 1" xmlns="http://www.w3.org/2000/svg" viewBox="0 0 128 128"><defs><style>.cls-1,.cls-14{fill:#1a1a1a;}.cls-1,.cls-6{fill-rule:evenodd;}.cls-2{fill:#2e8b99;}.cls-3{fill:#fff;}.cls-4{fill:#f5a76b;}.cls-5{fill:#f9c084;}.cls-7{fill:#afafaf;}.cls-8{fill:#48423b;}.cls-9{fill:#5a5550;}.cls-10{fill:#2f261a;}.cls-11{fill:#008fc0;}.cls-12{fill:#e1e0e0;}.cls-13{fill:#d7eced;}.cls-15{fill:#e32b12;}.cls-16{fill:#1a1b1a;}</style></defs><title>Specialits</title><path class="cls-1" d="M44.11,13.43c-7.26,4.2-8.56,15.82-8.56,20.77s0,.38,0,.57h0l-2.74-.14c-1.34-.07-3.91-16.41,2.09-23.27s9.26-3.14,9.26-3.14S50.69.52,57.6,2.09,73.38,10.79,75,18.36s-.52,16.7-.52,16.7l-2.75.13c0-.19,0-.37,0-.56,0-17-8.84-23.35-16.7-24A20.77,20.77,0,0,0,45.2,12.8Z"/><path class="cls-2" d="M100.42,98A61.24,61.24,0,0,1,5.86,98c3.51-13.43,7.55-28,8.32-29,1.41-1.85,8-2.44,9.38-2.44l6-1.43,1.92-.44,4.2-1,2.2-.52,3.29-.76,12,0,12,0,3.29.76,2.19.52,4.2,1L76.7,65l6,1.43c1.35,0,8,.59,9.39,2.44C92.89,69.92,96.91,84.53,100.42,98Z"/><path class="cls-3" d="M39.73,62.83S41.7,81,54.42,81.58c5.64.26,12.72-6.56,11.54-19C66,62.56,49.56,59.28,39.73,62.83Z"/><path class="cls-4" d="M62.68,57.82v4.07c0,7-.47,10.91-9.32,10.91C43.84,72.8,44,68.3,44,60.26V57.82a5.94,5.94,0,0,1,0-.73c.23-7.71,4.29-13.82,9.3-13.82,2.57,0,4.9,1.63,6.59,4.25A19.35,19.35,0,0,1,62.68,57.82Z"/><path class="cls-5" d="M72.15,36.67c0,13.29-14.46,24.06-18.8,24.06-2.74,0-18.79-10.77-18.79-24.06S43,12.62,53.35,12.62,72.15,23.39,72.15,36.67Z"/><path class="cls-5" d="M36.49,36.93c.29,2.44-.38,4.53-1.51,4.66s-2.26-1.73-2.56-4.17.38-4.53,1.51-4.66S36.2,34.49,36.49,36.93Z"/><path class="cls-5" d="M70.22,36.93c-.29,2.44.38,4.53,1.51,4.66s2.26-1.73,2.56-4.17-.38-4.53-1.51-4.66S70.51,34.49,70.22,36.93Z"/><path class="cls-3" d="M58.91,49.52a3,3,0,0,1-.25,1.18,5.88,5.88,0,0,1-10.61,0,3,3,0,0,1-.25-1.18C47.8,49.09,58.91,49.09,58.91,49.52Z"/><ellipse cx="62.4" cy="37.97" rx="1.49" ry="2.52"/><path class="cls-6" d="M45.36,40.49c.83,0,1.5-1.13,1.5-2.52s-.67-2.52-1.5-2.52S43.87,36.58,43.87,38,44.54,40.49,45.36,40.49Z"/><path d="M65.31,32.54h0c-1.18-.09-2.77-.1-4.05-.11-.67,0-1.28,0-1.73,0a.59.59,0,1,1,0-1.17c.44,0,1,0,1.7,0,1.3,0,2.91,0,4.14.12a.59.59,0,0,1,0,1.17Z"/><path d="M42.46,32.54a.59.59,0,0,1-.05-1.17c1.22-.1,2.84-.11,4.13-.12.67,0,1.26,0,1.71,0a.6.6,0,0,1,.6.57.58.58,0,0,1-.56.6c-.46,0-1.06,0-1.74,0-1.27,0-2.87,0-4,.11Z"/><path class="cls-1" d="M45.21,10.93s.86,4.5,13.43,7.65S71.47,37.5,71.47,37.5l1-5.44,1.86-12.27-6.86-10-10.09-4-7.13.27Z"/><path class="cls-1" d="M47.09,10.12s3.35,5,1,5.91C39.18,19.75,36.88,25.14,36,36.28l-1.73-5.36,2.27-17.73Z"/><rect class="cls-3" x="18.53" y="88.29" width="15.49" height="8.38"/><path class="cls-7" d="M40.1,74.81c7.26.94,10.95,15.32,9.81,24.2-.94,7.3-5,11.48-11.47,11.78l-.06-1.22c5.8-.27,9.46-4.08,10.32-10.72C49.9,89.53,45.87,76.79,40,76c-6.36-.82-13.18,11.43-14.26,19.86-.86,6.64,1.72,11.25,7.25,13L32.58,110c-6.17-1.93-9-7-8.11-14.31C25.62,86.86,32.84,73.87,40.1,74.81Z"/><path class="cls-8" d="M40.13,74.63C44,75.12,47.22,79.31,49,86.1a.79.79,0,1,1-1.53.41c-1.63-6.05-4.47-9.9-7.58-10.3s-6.86,2.6-10,8a.8.8,0,1,1-1.38-.79C32.07,77.35,36.28,74.13,40.13,74.63Z"/><path class="cls-9" d="M37,110.32c-.09-.67.73-1.34,1.83-1.49a2.33,2.33,0,0,1,2.16,1c.11.31-.73,1.34-1.83,1.49S37.11,111,37,110.32Z"/><path class="cls-9" d="M34.08,110c.26-.64-.37-1.49-1.4-1.91a2.32,2.32,0,0,0-2.33.38c-.19.27.37,1.49,1.39,1.91S33.82,110.58,34.08,110Z"/><path class="cls-8" d="M70.41,82.29a3.18,3.18,0,0,0-.7-.22,5,5,0,0,0-.87-.1c1.44-9-1.09-17.14-6.1-20.08V60.08C68.83,63,72,72.19,70.41,82.29Z"/><path class="cls-10" d="M70.41,82.29c-.1.65-.22,1.3-.37,1.95a.53.53,0,0,1,0,.12,1.78,1.78,0,0,1-.1.38,29,29,0,0,1-1,3.37.8.8,0,0,1-.91.52l-.1,0a.8.8,0,0,1-.49-1,28.3,28.3,0,0,0,.92-3.18,2.57,2.57,0,0,0,.08-.38.26.26,0,0,0,0-.1c.15-.65.27-1.3.36-1.94a5,5,0,0,1,.87.1A3.18,3.18,0,0,1,70.41,82.29Z"/><path class="cls-7" d="M73.19,87.57A4.6,4.6,0,1,1,68.84,82a5,5,0,0,1,.87.1,3.18,3.18,0,0,1,.7.22A4.6,4.6,0,0,1,73.19,87.57Z"/><path class="cls-11" d="M71.22,87.13a2.58,2.58,0,1,1-2-3.07A2.57,2.57,0,0,1,71.22,87.13Z"/><path class="cls-12" d="M70.87,87.05a2.21,2.21,0,1,1-1.69-2.64A2.21,2.21,0,0,1,70.87,87.05Z"/><path class="cls-8" d="M44,58.62a4.47,4.47,0,0,0,0,.73v2.32a30.57,30.57,0,0,0-3.22,9.4c-.19,1.26-.34,2.53-.41,3.78a.82.82,0,0,1-.84.77l-.1,0a.79.79,0,0,1-.66-.83,38.78,38.78,0,0,1,.45-4A30.32,30.32,0,0,1,44,58.62Z"/><circle class="cls-13" cx="97.23" cy="101.22" r="23.65"/><path class="cls-14" d="M120.87,101.22h-1.26a22.38,22.38,0,1,1-6.55-15.83,22.34,22.34,0,0,1,6.55,15.83h2.53a24.91,24.91,0,1,0-7.3,17.61,24.84,24.84,0,0,0,7.3-17.61Z"/><path class="cls-15" d="M108.56,99.45a5.89,5.89,0,0,0-.09-1,5.3,5.3,0,0,0-5.08-4.3,5.36,5.36,0,0,0-.7,0,5.19,5.19,0,0,0-4.1,3.14,2.13,2.13,0,0,1-.46.69,1.38,1.38,0,0,1-1,.37h0a1.44,1.44,0,0,1-1-.34,1.71,1.71,0,0,1-.5-.74h0l-.13-.27a5.23,5.23,0,0,0-4.51-2.92l-.37,0a5.47,5.47,0,0,0-2.79,1,5,5,0,0,0-1.72,2.36,5.77,5.77,0,0,0-.39,2A4.91,4.91,0,0,0,87.33,103c1.94,2,3.92,3.92,5.89,5.89l4,4h0c3.24-3.24,6.48-6.5,9.75-9.73A5,5,0,0,0,108.56,99.45Z"/><path class="cls-14" d="M111.34,97.68a7.92,7.92,0,0,0-2.13-4.13,8.2,8.2,0,0,0-4.12-2.13,9.08,9.08,0,0,0-1.84-.2,7.94,7.94,0,0,0-6.06,3,7.86,7.86,0,0,0-6.1-3,9.34,9.34,0,0,0-1.72.16A8.21,8.21,0,0,0,83,97.7h0a7.37,7.37,0,0,0-.16,1.53,9.49,9.49,0,0,0,3.23,6.71c3.35,3.22,6.63,6.54,10,9.83a2.57,2.57,0,0,0,.53.42,1.33,1.33,0,0,0,.66.18,1.39,1.39,0,0,0,.64-.17,2.38,2.38,0,0,0,.51-.39c3.67-3.64,7.35-7.27,11-10.93a7.28,7.28,0,0,0,2.19-5.31A10.1,10.1,0,0,0,111.34,97.68ZM97.19,112.86h0l-4-4c-2-2-4-3.92-5.89-5.89a4.91,4.91,0,0,1-1.55-3.52,5.77,5.77,0,0,1,.39-2,5,5,0,0,1,1.72-2.36,5.47,5.47,0,0,1,2.79-1l.37,0a5.23,5.23,0,0,1,4.51,2.92l.13.27h0a1.71,1.71,0,0,0,.5.74,1.44,1.44,0,0,0,1,.34h0a1.38,1.38,0,0,0,1-.37,2.13,2.13,0,0,0,.46-.69,5.19,5.19,0,0,1,4.1-3.14,5.36,5.36,0,0,1,.7,0,5.3,5.3,0,0,1,5.08,4.3,5.89,5.89,0,0,1,.09,1,5,5,0,0,1-1.62,3.68C103.67,106.36,100.43,109.62,97.19,112.86Z"/><path class="cls-16" d="M44.6,49.2s8.94-8.59,18.14,0Z"/><path class="cls-16" d="M56.67,53.5a4.38,4.38,0,0,1-6.11.06Z"/><path class="cls-16" d="M71.37,42.06a28.59,28.59,0,0,1-17.7,18.67S39,54.58,35.28,41.6c0,0,7.34,11.45,18.39,15.59C53.67,57.19,63.76,54.74,71.37,42.06Z"/><polygon class="cls-16" points="62.74 49.2 62.36 54.05 70.6 43.92 61.44 48.47 62.74 49.2"/><polygon class="cls-16" points="44.9 49.2 45.28 54.05 37.04 43.92 46.21 48.47 44.9 49.2"/></svg>