<svg id="Layer_1" data-name="Layer 1" xmlns="http://www.w3.org/2000/svg" xmlns:xlink="http://www.w3.org/1999/xlink" viewBox="0 0 128 128"><defs><style>.cls-1,.cls-11,.cls-2{fill:#1a1a1a;}.cls-1{clip-rule:evenodd;}.cls-10,.cls-2,.cls-4{fill-rule:evenodd;}.cls-3{clip-path:url(#clip-path);}.cls-4{fill:#f3b480;}.cls-5{fill:#d7eced;}.cls-6{fill:#86c1ea;}.cls-7{fill:#fff;}.cls-8{fill:#f5a76b;}.cls-9{fill:#f9c084;}.cls-12{fill:#777778;}</style><clipPath id="clip-path"><path id="SVGID" class="cls-1" d="M60.56-138.14a5.4,5.4,0,0,0,3,5.93c5.63,3.06,10.95,5.3,14.94,15.56l.1-5.55-7.23-16.06Z"/></clipPath></defs><title>Specialits</title><path id="SVGID-2" data-name="SVGID" class="cls-2" d="M60.56-138.14a5.4,5.4,0,0,0,3,5.93c5.63,3.06,10.95,5.3,14.94,15.56l.1-5.55-7.23-16.06Z"/><g class="cls-3"><path class="cls-4" d="M83.18-5.37,60.08,2.39S69.75,5.53,84.64,0Z"/></g><path id="SVGID-3" data-name="SVGID" class="cls-2" d="M67.63,12.54c7.24,3.83,8.53,14.42,8.53,18.94V32h0l2.73-.13s3.9-15-2.08-21.22-9.23-2.86-9.23-2.86-6.5-7-13.39-5.6S38.47,10.13,36.91,17s.52,15.23.52,15.23l2.73.12v-.51C40.16,16.38,49,10.57,56.8,10a22.1,22.1,0,0,1,9.75,2Z"/><path class="cls-5" d="M105.44,96.37a62.39,62.39,0,0,1-96.37,0c3.57-13.68,7.69-28.56,8.47-29.6,1.44-1.89,8.19-2.49,9.56-2.49l6.14-1.45,2-.45,4.28-1,2.24-.53,3.35-.78,12.18,0,12.19,0,3.35.78,2.24.53,4.28,1,2,.45,6.12,1.45c1.38,0,8.13.6,9.57,2.49C97.77,67.8,101.87,82.69,105.44,96.37Z"/><path class="cls-6" d="M42.1,67.88l12.52,51.24s2.34.13,2.34-.2S73.7,61.05,73.7,61.05L58.51,57.59s-12.39,1.64-16,3.1S42.1,67.88,42.1,67.88Z"/><polygon class="cls-7" points="81.82 77.49 75.4 88.19 70.43 96.48 58.76 115.93 57.48 118.08 56.33 116.2 57.71 111.27 71.89 60.65 72.08 60.02 74.58 60.6 74.63 60.75 77.98 65.72 79.48 67.95 77.44 69.23 73.12 71.93 76.47 74.07 78.6 75.43 78.6 75.44 81.82 77.49"/><polygon class="cls-7" points="31.93 77.47 37.74 88.18 42.24 96.47 52.82 115.93 53.98 118.08 55.25 116.2 54.16 111.27 42.95 60.61 42.84 60.11 40.23 60.65 40.18 60.71 36.51 65.69 34.86 67.92 36.84 69.2 41.02 71.9 37.52 74.04 35.3 75.4 35.29 75.41 31.93 77.47"/><path class="cls-8" d="M69.93,55.46v4.15c0,7.14-.62,11.12-12.46,11.12C44.76,70.73,45,66.14,45,58V55.46a4.59,4.59,0,0,1,0-.74c.3-7.86,5.74-14.09,12.42-14.09A11.57,11.57,0,0,1,66.29,45,16.34,16.34,0,0,1,69.93,55.46Z"/><path class="cls-9" d="M76.63,33.91c0,13.55-8.57,24.52-19.16,24.52s-19.15-11-19.15-24.52S46.89,9.39,57.47,9.39,76.63,20.37,76.63,33.91Z"/><path class="cls-9" d="M40.28,34.17c.3,2.49-.39,4.62-1.53,4.76s-2.31-1.77-2.61-4.26.38-4.62,1.53-4.75S40,31.68,40.28,34.17Z"/><path class="cls-9" d="M74.66,34.17c-.29,2.49.39,4.62,1.54,4.76s2.31-1.77,2.61-4.26-.39-4.62-1.53-4.75S75,31.68,74.66,34.17Z"/><path class="cls-7" d="M63.14,47a3,3,0,0,1-.26,1.19,6,6,0,0,1-10.81,0A3,3,0,0,1,51.81,47C51.81,46.56,63.14,46.56,63.14,47Z"/><rect class="cls-7" x="18.01" y="90.23" width="16.07" height="8.69"/><ellipse cx="66.7" cy="35.23" rx="1.52" ry="2.56"/><path class="cls-10" d="M49.33,37.8c.84,0,1.52-1.15,1.52-2.57s-.68-2.56-1.52-2.56-1.52,1.15-1.52,2.56S48.49,37.8,49.33,37.8Z"/><path d="M69.66,29.7h0c-1.2-.09-2.82-.11-4.13-.12l-1.77,0a.61.61,0,0,1-.57-.62.57.57,0,0,1,.61-.57l1.74,0c1.33,0,3,0,4.22.13a.6.6,0,0,1,0,1.19Z"/><path d="M46.36,29.7a.6.6,0,0,1-.59-.55.6.6,0,0,1,.55-.64c1.24-.1,2.89-.12,4.21-.13l1.74,0a.59.59,0,0,1,.61.57.6.6,0,0,1-.57.62l-1.77,0c-1.3,0-2.92,0-4.13.12Z"/><path id="SVGID-4" data-name="SVGID" class="cls-2" d="M65.76,9.18s-1.09,4.09-12.87,6.18S38.13,33.49,38.13,33.49l.3-6.78-.11-11.24,7-8.74,9.55-3.08,6.55.71Z"/><path id="SVGID-5" data-name="SVGID" class="cls-2" d="M58.31,10.15A5.61,5.61,0,0,0,61.4,16.3c5.84,3.17,11.35,5.49,15.49,16.14l.1-5.76L69.5,10Z"/><circle class="cls-5" cx="94.83" cy="101.9" r="22.88"/><path class="cls-11" d="M117.71,101.9h-1.22a21.66,21.66,0,1,1-6.34-15.31,21.6,21.6,0,0,1,6.34,15.31h2.44a24.1,24.1,0,1,0-7.06,17,24,24,0,0,0,7.06-17Z"/><path class="cls-12" d="M94.88,95.36a7.83,7.83,0,1,0,7.79,7.84A7.82,7.82,0,0,0,94.88,95.36ZM90.81,103A4,4,0,0,1,95,99.17a3,3,0,0,0,3.9,3.88,4,4,0,1,1-8.07,0Zm6.82.2a2.83,2.83,0,1,1,2.83-2.83A2.83,2.83,0,0,1,97.63,103.21Z"/><path class="cls-7" d="M86.63,97.54a16.75,16.75,0,0,0-5.8,5.46.3.3,0,0,0,0,.4,16.74,16.74,0,0,0,5.67,5.37l.25.12a10,10,0,0,1,0-11.41Z"/><path class="cls-7" d="M104.64,98.55c-.53-.39-1.11-.73-1.67-1.09a10.08,10.08,0,0,1,0,11.42l.12,0a16.76,16.76,0,0,0,5.83-5.49c.11-.17,0-.27,0-.39A16.33,16.33,0,0,0,104.64,98.55Z"/><path class="cls-7" d="M97.63,97.55a2.83,2.83,0,1,0,2.83,2.83A2.83,2.83,0,0,0,97.63,97.55Z"/><path class="cls-11" d="M111.79,102.61c-.57-.84-1.11-1.76-1.79-2.64a19.3,19.3,0,0,0-15.1-7.3c-.61,0-1.23,0-1.85.08a18.88,18.88,0,0,0-5.82,1.47A19.42,19.42,0,0,0,78,102.46l-.17.21-.14.18v.64l.32.44a19.5,19.5,0,0,0,16.63,9.8,20.31,20.31,0,0,0,5.28-.71,19,19,0,0,0,11.9-9.3,1,1,0,0,0,0-1.11Zm-25,6.28-.25-.12a16.74,16.74,0,0,1-5.67-5.37.3.3,0,0,1,0-.4,16.75,16.75,0,0,1,5.8-5.46l.14-.06A10,10,0,0,0,86.77,108.89Zm8,2.12a7.83,7.83,0,1,1,7.89-7.81A7.85,7.85,0,0,1,94.78,111Zm14.11-7.66a16.76,16.76,0,0,1-5.83,5.49l-.12,0a10.08,10.08,0,0,0,0-11.42c.56.36,1.14.7,1.68,1.09a16.45,16.45,0,0,1,4.19,4.41C108.92,103.08,109,103.18,108.89,103.35Z"/><path class="cls-11" d="M79.72,96.88l.45.47.48-.43a20.47,20.47,0,0,1,14.2-5.6h0a20.52,20.52,0,0,1,14.19,5.59l.49.44.44-.47,1.37-1.46.44-.47-.47-.46a24,24,0,0,0-32.94,0l-.47.45.45.48Z"/><path class="cls-11" d="M98.88,103.05A3,3,0,0,1,95,99.17,4,4,0,0,0,90.81,103a4,4,0,1,0,8.07,0Z"/></svg>