<svg id="Layer_1" data-name="Layer 1" xmlns="http://www.w3.org/2000/svg" xmlns:xlink="http://www.w3.org/1999/xlink" viewBox="0 0 128 128"><defs><style>.cls-1,.cls-11,.cls-2{fill:#1a1a1a;}.cls-1{clip-rule:evenodd;}.cls-10,.cls-2,.cls-8{fill-rule:evenodd;}.cls-3{fill:#20a179;}.cls-4{fill:#d7eced;}.cls-5{fill:#f5a76b;}.cls-6{fill:#f9c084;}.cls-7{fill:#fff;}.cls-9{clip-path:url(#clip-path);}.cls-10{fill:#f3b480;}.cls-12{fill:#f7bc99;}</style><clipPath id="clip-path"><path id="SVGID" class="cls-1" d="M67.74,8.92s-1,3.95-12.4,6S41.1,32.37,41.1,32.37l.29-6.54L41.28,15,48,6.56l9.21-3,6.32.68Z"/></clipPath></defs><title>Specialits</title><path class="cls-2" d="M35.47,71.21C32.59,58.35,39,50,43.94,40.57H76.5s13.43,21.06,7.3,30.3Z"/><path id="SVGID-2" data-name="SVGID" class="cls-2" d="M69.55,12.16c7,3.69,8.22,13.91,8.22,18.27v.5h0l2.63-.13s3.76-14.43-2-20.46-8.9-2.76-8.9-2.76S63.23.8,56.59,2.19,41.43,9.84,39.92,16.49s.5,14.69.5,14.69l2.64.12v-.5c0-14.93,8.49-20.53,16-21.08a21.4,21.4,0,0,1,9.41,1.89Z"/><path class="cls-3" d="M106,93a60.19,60.19,0,0,1-92.94,0c3.45-13.2,7.42-27.55,8.18-28.55,1.39-1.82,7.9-2.4,9.22-2.4l5.91-1.4,1.89-.44,4.13-1,2.16-.51L47.79,58l11.75,0,11.75,0,3.24.75,2.15.51,4.13,1,1.89.44,5.91,1.4c1.33,0,7.84.58,9.23,2.4C98.61,65.45,102.57,79.81,106,93Z"/><path class="cls-4" d="M44.93,65.53,57,114.94s2.26.13,2.26-.19S75.4,58.94,75.4,58.94L60.75,55.61s-11.94,1.58-15.42,3S44.93,65.53,44.93,65.53Z"/><path class="cls-5" d="M71.77,53.55v4c0,6.89-.61,10.73-12,10.73-12.25,0-12-4.43-12-12.33v-2.4a5.62,5.62,0,0,1,0-.71c.29-7.58,5.54-13.58,12-13.58a11.2,11.2,0,0,1,8.51,4.17A15.79,15.79,0,0,1,71.77,53.55Z"/><path class="cls-6" d="M78.22,32.77c0,13.06-8.26,23.65-18.47,23.65S41.28,45.83,41.28,32.77,49.55,9.13,59.75,9.13,78.22,19.71,78.22,32.77Z"/><path class="cls-6" d="M43.17,33c.29,2.39-.37,4.45-1.47,4.58s-2.23-1.71-2.52-4.11.37-4.45,1.48-4.58S42.89,30.63,43.17,33Z"/><path class="cls-6" d="M76.33,33c-.28,2.39.38,4.45,1.48,4.58S80,35.9,80.33,33.5s-.38-4.45-1.48-4.58S76.62,30.63,76.33,33Z"/><path class="cls-7" d="M65.22,45.4A3,3,0,0,1,65,46.56a5.77,5.77,0,0,1-10.43,0,3,3,0,0,1-.25-1.16C54.29,45,65.22,45,65.22,45.4Z"/><rect class="cls-7" x="21.7" y="87.09" width="15.5" height="8.38"/><ellipse cx="68.65" cy="34.05" rx="1.47" ry="2.47"/><path class="cls-8" d="M51.9,36.52c.81,0,1.47-1.11,1.47-2.47s-.66-2.48-1.47-2.48-1.47,1.12-1.47,2.48S51.09,36.52,51.9,36.52Z"/><path d="M71.51,28.71h-.05c-1.16-.09-2.73-.1-4-.11-.67,0-1.26,0-1.71,0a.56.56,0,0,1-.55-.59.55.55,0,0,1,.59-.55l1.68,0c1.27,0,2.86,0,4.06.12a.58.58,0,0,1,0,1.15Z"/><path d="M49,28.71a.58.58,0,0,1,0-1.15c1.21-.1,2.79-.11,4.07-.12l1.68,0a.57.57,0,1,1,0,1.14c-.44,0-1,0-1.7,0-1.26,0-2.82,0-4,.11Z"/><path id="SVGID-3" data-name="SVGID" class="cls-2" d="M67.74,8.92s-1,3.95-12.4,6S41.1,32.37,41.1,32.37l.29-6.54L41.28,15,48,6.56l9.21-3,6.32.68Z"/><g class="cls-9"><path class="cls-10" d="M42.38,127.43l-22-.91s7.14,5.78,21.49,5.92Z"/></g><path id="SVGID-4" data-name="SVGID" class="cls-2" d="M60.56,9.86a5.4,5.4,0,0,0,3,5.93c5.63,3.06,10.95,5.3,14.94,15.56l.1-5.55L71.35,9.74Z"/><circle class="cls-4" cx="91.69" cy="102.76" r="22.06"/><path class="cls-11" d="M113.75,102.76h-1.18A20.88,20.88,0,1,1,106.46,88a20.81,20.81,0,0,1,6.11,14.77h2.36a23.25,23.25,0,1,0-6.81,16.43,23.19,23.19,0,0,0,6.81-16.43Z"/><path class="cls-12" d="M95.15,91.43c.7.27,1.42.48,2.09.81a11.63,11.63,0,0,1,6.56,8.19c.21.93.2.93,1.16.83a1.69,1.69,0,0,1,1.77.84,1.65,1.65,0,0,1,0,1.9,1.69,1.69,0,0,1-1.82.74c-.79-.14-.89-.06-1.07.74a11.9,11.9,0,0,1-23.23-.12c-.16-.77-.29-.85-1.09-.65a1.78,1.78,0,0,1-2-2.65,1.83,1.83,0,0,1,1.93-.78c.92.19,1,.15,1.16-.79a11.83,11.83,0,0,1,11.58-9.37,2.62,2.62,0,0,1,2.38,3.45,2.16,2.16,0,0,1-2.09,1.36,1.7,1.7,0,0,1-1.54-1.45,1.26,1.26,0,0,1,1-1.51,1.1,1.1,0,0,1,.86.39c.1.1-.08.58-.26.76s-.91.48-.46,1,.86.05,1.21-.21a1.64,1.64,0,0,0,.56-2,1.8,1.8,0,0,0-1.89-1.09,2.36,2.36,0,0,0-2.1,2.44A2.72,2.72,0,0,0,92.13,97a3.07,3.07,0,0,0,3-1.28,3.35,3.35,0,0,0,.25-3.54c-.09-.19-.2-.37-.3-.55ZM92,109.29a3.94,3.94,0,0,0,4-3.6c0-.39.07-.82-.46-.87s-.57.35-.61.76a2.87,2.87,0,0,1-5.72,0c0-.41-.12-.79-.64-.73s-.48.46-.45.83A4,4,0,0,0,92,109.29Zm5-10.41a2.24,2.24,0,0,0-2.24,2.06.87.87,0,0,0,.44.68c.36.13.55-.17.62-.52.16-.78.51-1.11,1.13-1.12s1,.33,1.19,1.13c.08.37.28.65.63.51a.9.9,0,0,0,.42-.7A2.22,2.22,0,0,0,96.94,98.88Zm-9.81,0a2.22,2.22,0,0,0-2.19,2,.89.89,0,0,0,.42.7c.36.14.55-.16.64-.51a2.09,2.09,0,0,1,.25-.7,1,1,0,0,1,1.18-.41,1.15,1.15,0,0,1,.89,1.1c0,.37.25.65.61.52a.86.86,0,0,0,.43-.68A2.21,2.21,0,0,0,87.13,98.88Z"/><path class="cls-11" d="M105.51,99.56l-.16,0,0-.05-.06-.18h0a13.52,13.52,0,0,0-19-8.53A13.37,13.37,0,0,0,79,99.55a4.72,4.72,0,0,0-2.46,1A3.15,3.15,0,0,0,75.51,103v.1a3.12,3.12,0,0,0,1.11,2.45,4.51,4.51,0,0,0,2.41.88,15.27,15.27,0,0,0,4.58,7.08,13.06,13.06,0,0,0,8.29,2.85h.32a13,13,0,0,0,8.42-2.75,15.51,15.51,0,0,0,4.7-7.16,3.42,3.42,0,0,0,3.34-3.29h0v-.12A3.42,3.42,0,0,0,105.51,99.56Zm-.29,2.31a1,1,0,0,1,1,.55,1.17,1.17,0,0,1,.18.6,1.12,1.12,0,0,1-.21.63,1.07,1.07,0,0,1-.91.51l-.29,0a3.06,3.06,0,0,0-.59-.07,1.26,1.26,0,0,0-.48.09,1.08,1.08,0,0,0-.53.55,3.18,3.18,0,0,0-.19.64,11.22,11.22,0,0,1-11,8.76H92.1a11.22,11.22,0,0,1-10.93-8.87,2.34,2.34,0,0,0-.28-.79,1,1,0,0,0-.39-.34A1.12,1.12,0,0,0,80,104a2.83,2.83,0,0,0-.69.11,1.59,1.59,0,0,1-.36,0,1.09,1.09,0,0,1-.94-.48,1.2,1.2,0,0,1-.21-.67,1.08,1.08,0,0,1,.18-.6,1.17,1.17,0,0,1,1-.54l.28,0a3.87,3.87,0,0,0,.73.1,1.08,1.08,0,0,0,.5-.11.94.94,0,0,0,.33-.29,2.54,2.54,0,0,0,.33-1,11.26,11.26,0,0,1,9.13-8.74,2.6,2.6,0,0,0-.38.36,3,3,0,0,0-.74,2v0h0a3.36,3.36,0,0,0,2.88,3.29,4.89,4.89,0,0,0,.54,0,3.64,3.64,0,0,0,3-1.56,3.82,3.82,0,0,0,.76-2.26,4.18,4.18,0,0,0-.25-1.34c.29.11.58.22.84.35a11,11,0,0,1,6.22,7.77h0a3.14,3.14,0,0,0,.29.88,1,1,0,0,0,.43.39,1.19,1.19,0,0,0,.49.09c.2,0,.39,0,.62-.05ZM92,93.59h0l.07,0v0l0,0s-.17.13-.34.27l-.2.19a.88.88,0,0,1,.14-.36A.49.49,0,0,1,92,93.59Z"/><path class="cls-11" d="M95.57,104.2h-.15a1.14,1.14,0,0,0-.59.16,1,1,0,0,0-.46.64,2.36,2.36,0,0,0-.09.52,2.28,2.28,0,0,1-2.25,2.1h0a2.26,2.26,0,0,1-2.22-2.11,1.88,1.88,0,0,0-.19-.76,1,1,0,0,0-.39-.4,1.08,1.08,0,0,0-.57-.15h-.19a1.13,1.13,0,0,0-.83.5,1.46,1.46,0,0,0-.18.72l0,.28h0a4.58,4.58,0,0,0,4.47,4.21v0h.11a4.57,4.57,0,0,0,4.54-4.14h0a3.25,3.25,0,0,0,0-.36,1.22,1.22,0,0,0-.21-.74A1.12,1.12,0,0,0,95.57,104.2Z"/><path class="cls-11" d="M99.75,100.88A2.83,2.83,0,0,0,97,98.26h0A2.86,2.86,0,0,0,95,99a2.71,2.71,0,0,0-.9,1.86h0v0h0v0a1.4,1.4,0,0,0,.24.73,1.25,1.25,0,0,0,.6.52,1,1,0,0,0,.39.07,1,1,0,0,0,.8-.42,1.6,1.6,0,0,0,.26-.63,1.06,1.06,0,0,1,.22-.53s.1-.08.32-.09h0c.21,0,.26,0,.32.09a1.14,1.14,0,0,1,.23.55,1.76,1.76,0,0,0,.27.64,1,1,0,0,0,.8.4,1.15,1.15,0,0,0,.41-.08h0a1.33,1.33,0,0,0,.58-.54,1.31,1.31,0,0,0,.22-.72v0Z"/><path class="cls-11" d="M87.7,101.16a1.49,1.49,0,0,0,.25.7,1,1,0,0,0,.81.42,1,1,0,0,0,.39-.08,1.25,1.25,0,0,0,.6-.52A1.47,1.47,0,0,0,90,101v0h0a2.82,2.82,0,0,0-2.83-2.65h0A2.9,2.9,0,0,0,85.2,99a2.71,2.71,0,0,0-.88,1.86h0v0a1.37,1.37,0,0,0,.22.73,1.24,1.24,0,0,0,.59.53.91.91,0,0,0,.41.09,1,1,0,0,0,.79-.41,1.75,1.75,0,0,0,.27-.62h0a1.49,1.49,0,0,1,.17-.49h0a.36.36,0,0,1,.33-.17l.18,0a.5.5,0,0,1,.29.17A.69.69,0,0,1,87.7,101.16Z"/></svg>