<svg id="Layer_1" data-name="Layer 1" xmlns="http://www.w3.org/2000/svg" viewBox="0 0 128 128"><defs><style>.cls-1,.cls-11{fill:#1a1a1a;}.cls-1,.cls-6,.cls-7,.cls-8,.cls-9{fill-rule:evenodd;}.cls-2{fill:#20a179;}.cls-3,.cls-9{fill:#fff;}.cls-4{fill:#f5a76b;}.cls-5{fill:#f9c084;}.cls-7{fill:#14a078;}.cls-8{fill:#117859;}.cls-10{fill:#d7eced;}</style></defs><title>Specialits</title><path class="cls-1" d="M51.53,14.61c-7.13,4.12-8.4,15.53-8.4,20.38v.56h0l-2.69-.14c-1.32-.07-3.84-16.11,2.05-22.83s9.09-3.08,9.09-3.08,6.4-7.57,13.19-6,15.48,8.55,17,16-.51,16.39-.51,16.39L78.59,36v-.54c0-16.67-8.68-22.92-16.39-23.53A20.37,20.37,0,0,0,52.59,14Z"/><path class="cls-1" d="M31.22,71.32C27.76,57.79,35.45,49,41.42,39.09H80.65S96.83,61.24,89.44,71Z"/><path class="cls-2" d="M106.78,97.55a60.07,60.07,0,0,1-92.78,0c3.44-13.17,7.4-27.5,8.16-28.49,1.39-1.82,7.89-2.4,9.2-2.4l5.91-1.4,1.89-.43,4.12-.95,2.15-.52,3.23-.75,11.73,0,11.73,0,3.23.75,2.15.52,4.12.95,1.89.43,5.9,1.4c1.32,0,7.82.58,9.21,2.4C99.39,70,103.34,84.38,106.78,97.55Z"/><path class="cls-3" d="M47.23,63.08s1.93,17.83,14.41,18.41c5.54.25,12.48-6.44,11.33-18.67C73,62.82,56.88,59.61,47.23,63.08Z"/><path class="cls-4" d="M69.75,58.17v4c0,6.88-.46,10.71-9.15,10.71-9.33,0-9.15-4.42-9.15-12.31V58.17a5.78,5.78,0,0,1,0-.72c.22-7.56,4.21-13.56,9.12-13.56,2.52,0,4.81,1.6,6.47,4.17A19,19,0,0,1,69.75,58.17Z"/><path class="cls-5" d="M79,37.42C79,50.46,64.86,61,60.6,61c-2.69,0-18.44-10.57-18.44-23.61s8.25-23.6,18.44-23.6S79,24.38,79,37.42Z"/><path class="cls-5" d="M44.05,37.67c.29,2.4-.37,4.45-1.48,4.58s-2.22-1.71-2.51-4.1.37-4.44,1.48-4.57S43.76,35.28,44.05,37.67Z"/><path class="cls-5" d="M77.15,37.67c-.28,2.4.37,4.45,1.48,4.58s2.22-1.71,2.51-4.1-.37-4.44-1.47-4.57S77.44,35.28,77.15,37.67Z"/><path class="cls-3" d="M66.06,50a3,3,0,0,1-.25,1.15,5.76,5.76,0,0,1-10.41,0A2.81,2.81,0,0,1,55.15,50C55.15,49.6,66.06,49.6,66.06,50Z"/><ellipse cx="69.48" cy="38.69" rx="1.46" ry="2.47"/><path class="cls-6" d="M52.76,41.16c.81,0,1.46-1.11,1.46-2.47s-.65-2.47-1.46-2.47-1.47,1.11-1.47,2.47S52,41.16,52.76,41.16Z"/><path d="M72.33,33.36h0c-1.16-.09-2.72-.11-4-.12l-1.7,0a.57.57,0,0,1-.55-.59.56.56,0,0,1,.59-.56c.44,0,1,0,1.67,0,1.27,0,2.86,0,4.06.12a.57.57,0,0,1,0,1.14Z"/><path d="M49.91,33.36a.57.57,0,0,1,0-1.14c1.2-.1,2.78-.11,4.06-.12.65,0,1.23,0,1.67,0a.58.58,0,0,1,.59.56.57.57,0,0,1-.55.59l-1.7,0c-1.26,0-2.82,0-4,.12Z"/><path class="cls-1" d="M52.6,12.16s.85,4.42,13.19,7.51S78.37,38.23,78.37,38.23l1-5.33,1.82-12L74.5,11.08l-9.9-4-7,.26Z"/><path class="cls-1" d="M54.45,11.37s3.29,4.85,1,5.8c-8.78,3.64-11,8.93-11.86,19.87l-1.7-5.26,2.23-17.4Z"/><path class="cls-7" d="M39.25,31.83C50.07,12.54,71.8,13.11,82,31.21c1.06-5.34,1.83-17,1.2-21.12C82.36,5,70.8,1.88,59.78,1.88S39.88,5.48,38.29,10,39.09,31.52,39.25,31.83Z"/><path class="cls-8" d="M82.89,25.44s-21.1-23.59-44.4,1.38l-.55-3.95C50.81,7.48,69.68,9.59,83.18,21.27Z"/><path class="cls-9" d="M47.7,51.13V42.41a70.71,70.71,0,0,1,13.68.17,70.71,70.71,0,0,1,13.68-.17v8.72C67.15,61.8,54.5,61.38,47.7,51.13Z"/><path class="cls-3" d="M73.5,45.46a.81.81,0,0,1-.27-.05c-.27-.12-.36-.37-.21-.57a23.7,23.7,0,0,0,4.18-8.57.57.57,0,0,1,.64-.34c.3,0,.5.26.44.49A24.38,24.38,0,0,1,74,45.25.63.63,0,0,1,73.5,45.46Z"/><path class="cls-3" d="M74.53,51.41l-.19,0c-.28-.08-.43-.32-.33-.53l1.88-4a.63.63,0,0,1,.71-.25c.28.08.43.32.33.54l-1.88,4A.58.58,0,0,1,74.53,51.41Z"/><path class="cls-3" d="M50.53,45.08a.63.63,0,0,1-.36-.1,17.67,17.67,0,0,1-6.85-8.53c-.08-.22.09-.45.39-.51a.58.58,0,0,1,.67.29,16.86,16.86,0,0,0,6.51,8.12.35.35,0,0,1,0,.59A.6.6,0,0,1,50.53,45.08Z"/><path class="cls-3" d="M48.47,51.81a.58.58,0,0,1-.49-.23L44.9,47.12c-.14-.21,0-.46.24-.57a.63.63,0,0,1,.74.18L49,51.2c.14.2,0,.45-.23.56A.74.74,0,0,1,48.47,51.81Z"/><rect class="cls-3" x="24.69" y="88.99" width="15.2" height="8.22"/><circle class="cls-10" cx="89.56" cy="101.68" r="23.2"/><path class="cls-11" d="M112.76,101.68h-1.23a22,22,0,1,1-6.44-15.53,21.9,21.9,0,0,1,6.44,15.53H114A24.45,24.45,0,1,0,106.84,119,24.38,24.38,0,0,0,114,101.68Z"/><path class="cls-11" d="M88.68,90.55H91l.2.11a2.59,2.59,0,0,1,1.77,2.5c0,2.57,0,5.14,0,7.7a7.49,7.49,0,0,1-3.1,6,7.92,7.92,0,0,1-3.24,1.41c0,.51,0,1,0,1.46a3.79,3.79,0,0,0,6.08,2.9,3.65,3.65,0,0,0,1.5-3.09c0-4.17,0-8.34,0-12.52a3.83,3.83,0,1,1,7.65,0c0,2,0,4.07,0,6.11,0,.18,0,.45.14.53a3.51,3.51,0,0,1,1.12,1.59v1.09a.42.42,0,0,0-.08.12,2.51,2.51,0,0,1-2.44,1.89A2.54,2.54,0,0,1,99,103.74a.56.56,0,0,0,.19-.37q0-3.3,0-6.6a1.19,1.19,0,0,0-1.11-1.13,1.24,1.24,0,0,0-1.3.87,2.87,2.87,0,0,0-.09.78V109.6a6.56,6.56,0,0,1-.09,1.08A6.35,6.35,0,0,1,84,109.62v-1.35a7.72,7.72,0,0,1-6.37-7.74c.06-2.45,0-4.9,0-7.34a3.17,3.17,0,0,1,.07-.69,2.71,2.71,0,0,1,1.92-2h2.18c.79.46,1.06,1,.87,1.63s-.7.93-1.57.94h-.89c0,2.66,0,5.26,0,7.86a5.07,5.07,0,0,0,10.13-.4q0-3.52,0-7c0-.13,0-.25,0-.42-.42,0-.82,0-1.21,0a1.32,1.32,0,0,1-1.31-1.38A1.57,1.57,0,0,1,88.68,90.55Z"/></svg>